<?xml version="1.0" encoding="UTF-8"?>
<!-- Generator: Adobe Illustrator 16.0.4, SVG Export Plug-In . SVG Version: 6.00 Build 0)  -->
<!DOCTYPE svg PUBLIC "-//W3C//DTD SVG 1.1//EN" "http://www.w3.org/Graphics/SVG/1.1/DTD/svg11.dtd">
<svg version="1.1" id="Layer_1" xmlns="http://www.w3.org/2000/svg" xmlns:xlink="http://www.w3.org/1999/xlink" x="0px" y="0px" width="48px" height="48px" viewBox="0 0 48 48" enable-background="new 0 0 48 48" xml:space="preserve">
<ellipse opacity="0.19" enable-background="new    " cx="23.5" cy="44.7" rx="10.4" ry="3.3"/>
<path fill="#1CB2B0" d="M23.5,0c-9.4,0-17,7.5-17,16.8s17,28,17,28s17-18.7,17-28S32.9,0,23.5,0z"/>
<circle fill="#3D8482" cx="-3.5" cy="-54.5" r="4.2"/>
<path fill="#3C7571" d="M23.5-37.8c2.2,0,3.9,1.6,4.2,3.8c0-0.2,0.1-0.3,0.1-0.5c0-2.3-1.899-4.2-4.2-4.2c-2.301,0-4.2,1.9-4.2,4.2  c0,0.2,0,0.3,0.1,0.5C19.6-36.1,21.3-37.8,23.5-37.8z"/>
<path fill="#FFFFFF" d="M23.602,7.324c-4.55,0-8.239,3.688-8.239,8.238s3.688,8.238,8.239,8.238c4.548,0,8.238-3.688,8.238-8.238  S28.15,7.324,23.602,7.324z M24.841,20.104c-0.024,0.036-0.065,0.058-0.109,0.058h-2.17c-0.054,0-0.103-0.033-0.123-0.084  l-2.949-7.495c-0.016-0.041-0.01-0.087,0.014-0.123c0.025-0.036,0.065-0.058,0.109-0.058h2.209c0.055,0,0.103,0.033,0.124,0.083  l2.909,7.495C24.871,20.021,24.866,20.067,24.841,20.104z M27.711,12.589l-2.233,5.395c-0.021,0.049-0.068,0.082-0.123,0.082l0,0  c-0.053,0-0.102-0.031-0.121-0.081l-1.04-2.462c-0.013-0.031-0.014-0.065-0.003-0.097l1.052-2.936  c0.019-0.053,0.068-0.087,0.125-0.087h2.224l0,0c0.072,0,0.133,0.059,0.133,0.132C27.724,12.553,27.718,12.572,27.711,12.589z"/>
</svg>